<?xml version="1.0" standalone="no"?><!DOCTYPE svg PUBLIC "-//W3C//DTD SVG 1.1//EN" "http://www.w3.org/Graphics/SVG/1.1/DTD/svg11.dtd"><svg t="1576222392611" class="icon" viewBox="0 0 1024 1024" version="1.1" xmlns="http://www.w3.org/2000/svg" p-id="2314" xmlns:xlink="http://www.w3.org/1999/xlink" width="200" height="200"><defs><style type="text/css"></style></defs><path d="M875.31 222.57c0-76.63-62.12-138.74-138.74-138.74H286.99c-76.63 0-138.74 62.12-138.74 138.74v577.89c0 76.63 62.12 138.74 138.74 138.74h361.06l227.26-211.26V222.57z" fill="#410844" p-id="2315"></path><path d="M656.45 960.58H286.99c-88.3 0-160.13-71.83-160.13-160.13V222.57c0-88.3 71.83-160.13 160.13-160.13h449.58c88.29 0 160.13 71.83 160.13 160.13v514.69L656.45 960.58zM286.99 105.21c-64.71 0-117.36 52.65-117.36 117.36v577.89c0 64.71 52.65 117.36 117.36 117.36h352.66l214.28-199.19V222.57c0-64.71-52.65-117.36-117.36-117.36H286.99z" fill="#EAB4EF" p-id="2316"></path><path d="M489.63 377.56c20.02 16.17 31.95 38.49 36.18 66.21h-43.88c-4.62-18.09-13.09-31.18-25.79-39.65-12.32-8.47-28.1-12.32-47.35-12.32-28.87 0-50.42 9.62-65.05 29.64-13.47 17.71-20.02 42.34-20.02 73.9 0 32.33 6.54 57.35 19.63 74.67 14.24 18.48 36.57 28.1 66.59 28.1 19.63 0 35.8-5 48.11-14.24 13.09-10.39 22.33-26.17 27.71-46.96h43.88c-6.16 32.33-20.4 57.35-43.11 75.44-21.17 16.94-46.58 25.4-76.21 25.4-45.81 0-80.06-14.63-102.39-43.11-19.63-24.63-29.25-57.74-29.25-99.31 0-40.8 10.01-74.29 30.41-99.69 23.1-29.25 56.58-43.5 100.46-43.5 32.35 0.01 59.3 8.48 80.08 25.42zM612.03 352.15v107.78c7.31-11.16 16.55-19.25 27.33-24.63 9.62-5 20.79-7.31 33.49-7.31 24.25 0 42.34 6.93 54.27 21.17 11.16 13.47 16.94 33.49 16.94 60.05v123.17h-43.88V516.9c0-16.94-3.46-30.02-10.01-38.88-7.7-9.62-18.86-14.24-33.87-14.24-13.86 0-24.63 5.39-32.33 16.17-8.08 10.78-11.93 24.25-11.93 41.19v111.24h-43.88V352.15h43.87z" fill="#F7C6F0" p-id="2317"></path></svg>