<?xml version="1.0" standalone="no"?><!DOCTYPE svg PUBLIC "-//W3C//DTD SVG 1.1//EN" "http://www.w3.org/Graphics/SVG/1.1/DTD/svg11.dtd"><svg t="1576222386180" class="icon" viewBox="0 0 1024 1024" version="1.1" xmlns="http://www.w3.org/2000/svg" p-id="2175" xmlns:xlink="http://www.w3.org/1999/xlink" width="200" height="200"><defs><style type="text/css"></style></defs><path d="M876.48 225.18c0-76.25-61.81-138.06-138.06-138.06H291.05c-76.25 0-138.06 61.81-138.06 138.06v575.04c0 76.25 61.81 138.06 138.06 138.06h359.28l226.14-210.22V225.18z" fill="#083507" p-id="2176"></path><path d="M658.7 959.56H291.05c-87.86 0-159.34-71.48-159.34-159.34V225.18c0-87.86 71.48-159.34 159.34-159.34h447.36c87.86 0 159.34 71.48 159.34 159.34v512.15L658.7 959.56zM291.05 108.4c-64.39 0-116.78 52.39-116.78 116.78v575.04c0 64.39 52.39 116.78 116.78 116.78h350.92L855.2 718.79V225.18c0-64.39-52.39-116.78-116.78-116.78H291.05z" fill="#53D8BC" p-id="2177"></path><path d="M488.29 379.41c19.92 16.09 31.79 38.3 36 65.88h-43.67c-4.6-18-13.02-31.03-25.66-39.45-12.26-8.43-27.96-12.26-47.11-12.26-28.73 0-50.18 9.58-64.73 29.49-13.41 17.62-19.92 42.13-19.92 73.54 0 32.17 6.51 57.07 19.53 74.31 14.17 18.38 36.39 27.96 66.26 27.96 19.53 0 35.62-4.98 47.88-14.17 13.02-10.34 22.22-26.04 27.58-46.73h43.66c-6.13 32.17-20.3 57.07-42.9 75.07-21.07 16.85-46.35 25.28-75.84 25.28-45.58 0-79.67-14.55-101.88-42.9-19.53-24.51-29.11-57.45-29.11-98.82 0-40.6 9.96-73.92 30.26-99.2 22.98-29.11 56.3-43.28 99.97-43.28 32.19 0 59 8.42 79.68 25.28zM730.74 459.07c18 19.53 27.2 44.43 27.2 75.07 0 30.26-9.19 55.16-26.81 74.31-18.38 19.92-42.9 29.88-72.77 29.88-30.26 0-54.39-9.96-72.78-29.88-18-19.15-26.81-44.05-26.81-74.31 0-30.64 8.81-55.54 27.19-75.07 18-19.92 42.13-29.49 72.39-29.49 29.88 0 54.01 9.58 72.39 29.49z m-114.52 27.58c-8.43 12.26-12.64 28.34-12.64 47.5 0 19.15 4.21 34.85 12.64 47.11 9.96 14.17 23.75 21.45 42.13 21.45 18 0 32.17-7.28 42.13-21.45 8.43-12.64 13.02-28.34 13.02-47.11 0-19.15-4.6-35.24-13.02-47.5-9.96-14.56-24.13-21.45-42.13-21.45-18.38 0-32.17 6.9-42.13 21.45z" fill="#53D8BC" p-id="2178"></path></svg>