<?xml version="1.0" standalone="no"?><!DOCTYPE svg PUBLIC "-//W3C//DTD SVG 1.1//EN" "http://www.w3.org/Graphics/SVG/1.1/DTD/svg11.dtd"><svg t="1576222444272" class="icon" viewBox="0 0 1024 1024" version="1.1" xmlns="http://www.w3.org/2000/svg" p-id="3355" xmlns:xlink="http://www.w3.org/1999/xlink" width="200" height="200"><defs><style type="text/css"></style></defs><path d="M904.533333 0h-785.066666C54.613333 0 0 54.613333 0 119.466667v785.066666C0 969.386667 54.613333 1024 119.466667 1024h785.066666c64.853333 0 119.466667-54.613333 119.466667-119.466667v-785.066666C1024 54.613333 969.386667 0 904.533333 0zM750.933333 324.266667c0 10.24-6.826667 17.066667-17.066666 17.066666-85.333333 0-88.746667 10.24-102.4 47.786667-3.413333 6.826667-3.413333 13.653333-6.826667 20.48h75.093333c10.24 0 17.066667 6.826667 17.066667 17.066667v136.533333c0 10.24-6.826667 17.066667-17.066667 17.066667h-122.88c-37.546667 133.12-177.493333 273.066667-320.853333 273.066666-10.24 0-17.066667-6.826667-17.066667-17.066666v-136.533334c0-10.24 6.826667-17.066667 17.066667-17.066666 105.813333 0 136.533333-85.333333 170.666667-194.56 6.826667-17.066667 10.24-30.72 17.066666-47.786667C488.106667 317.44 539.306667 170.666667 733.866667 170.666667c10.24 0 17.066667 6.826667 17.066666 17.066666v136.533334z" fill="#d81e06" p-id="3356"></path></svg>