<?xml version="1.0" standalone="no"?><!DOCTYPE svg PUBLIC "-//W3C//DTD SVG 1.1//EN" "http://www.w3.org/Graphics/SVG/1.1/DTD/svg11.dtd"><svg t="1576222377572" class="icon" viewBox="0 0 1024 1024" version="1.1" xmlns="http://www.w3.org/2000/svg" p-id="2054" xmlns:xlink="http://www.w3.org/1999/xlink" width="200" height="200"><defs><style type="text/css"></style></defs><path d="M875.26 225.63c0-76.46-61.98-138.45-138.45-138.45h-448.6c-76.46 0-138.45 61.98-138.45 138.45v576.64c0 76.46 61.98 138.45 138.45 138.45h360.28l226.77-210.8V225.63z" fill="#2B063D" p-id="2055"></path><path d="M656.88 962.05H288.21c-88.1 0-159.78-71.68-159.78-159.78V225.63c0-88.1 71.68-159.78 159.78-159.78h448.61c88.1 0 159.78 71.68 159.78 159.78v513.58L656.88 962.05zM288.21 108.52c-64.57 0-117.11 52.53-117.11 117.11v576.64c0 64.57 52.53 117.11 117.11 117.11h351.9l213.82-198.76V225.63c0-64.57-52.53-117.11-117.11-117.11H288.21z" fill="#E273FF" p-id="2056"></path><path d="M458.92 360.31c66.06 0 99.48 28.04 99.48 84.12 0 56.46-33.42 84.88-100.25 84.88h-67.98v105.24h-44.94V360.31h113.69zM390.17 490.9h65.3c19.97 0 34.57-3.84 43.79-10.75 9.22-7.3 13.83-19.2 13.83-35.72s-4.99-28.04-14.21-34.95c-9.22-7.3-23.81-10.75-43.4-10.75h-65.3v92.17zM711.65 435.59v43.79c-9.99-3.07-19.2-4.23-28.42-4.23-11.52 0-21.89 4.23-31.11 13.44-10.75 10.37-15.75 23.81-15.75 40.71v105.24h-43.4V435.98h43.4v28.42c5.38-9.99 11.52-17.67 18.82-23.05 8.83-7.3 19.21-10.75 31.5-10.75 9.6 0 18.05 1.54 24.96 4.99z" fill="#E273FF" p-id="2057"></path></svg>