<?xml version="1.0" standalone="no"?><!DOCTYPE svg PUBLIC "-//W3C//DTD SVG 1.1//EN" "http://www.w3.org/Graphics/SVG/1.1/DTD/svg11.dtd"><svg t="1576668367035" class="icon" viewBox="0 0 1024 1024" version="1.1" xmlns="http://www.w3.org/2000/svg" p-id="2098" xmlns:xlink="http://www.w3.org/1999/xlink" width="200" height="200"><defs><style type="text/css"></style></defs><path d="M835.911 350.045c-29.694 0-53.984 24.291-53.984 53.984l0 215.942c0 29.694 24.291 53.984 53.984 53.984s53.984-24.291 53.984-53.984l0-215.942c0-29.66-24.324-53.984-53.984-53.984zM188.089 350.045c-29.694 0-53.984 24.291-53.984 53.984l0 215.942c0 29.694 24.291 53.984 53.984 53.984s53.984-24.291 53.984-53.984l0-215.942c0-29.66-24.291-53.984-53.984-53.984zM269.083 700.932c0 44.739 36.255 80.961 80.961 80.961l26.976 0 0 107.97c0 29.694 24.291 53.984 53.984 53.984 29.694 0 53.984-24.291 53.984-53.984l0-107.97 53.984 0 0 107.97c0 29.694 24.291 53.984 53.984 53.984s53.984-24.291 53.984-53.984l0-107.97 26.976 0c44.739 0 80.961-36.255 80.961-80.961l0-296.902-485.802 0 0 296.902zM612.049 155.644l34.169-65.617c1.724-3.28 0.463-7.391-2.851-9.081-3.28-1.724-7.391-0.463-9.081 2.851l-34.698 66.611c-27.209-10.506-56.736-16.272-87.589-16.272s-60.382 5.766-87.556 16.305l-34.665-66.678c-1.724-3.28-5.801-4.574-9.081-2.851-3.28 1.724-4.574 5.801-2.851 9.081l34.169 65.651c-76.454 34.598-131.798 107.639-141.377 194.434l482.886 0c-9.71-86.828-65.055-159.835-141.475-194.434zM404.03 308.222c-21.607 0-39.139-17.531-39.139-39.139s17.531-39.139 39.139-39.139c21.607 0 39.139 17.531 39.139 39.139s-17.531 39.139-39.139 39.139zM619.97 308.222c-21.607 0-39.139-17.531-39.139-39.139s17.531-39.139 39.139-39.139c21.607 0 39.139 17.531 39.139 39.139s-17.531 39.139-39.139 39.139z" p-id="2099" fill="#6cce41"></path></svg>