<?xml version="1.0" standalone="no"?><!DOCTYPE svg PUBLIC "-//W3C//DTD SVG 1.1//EN" "http://www.w3.org/Graphics/SVG/1.1/DTD/svg11.dtd"><svg t="1576668528049" class="icon" viewBox="0 0 1974 1024" version="1.1" xmlns="http://www.w3.org/2000/svg" p-id="4281" xmlns:xlink="http://www.w3.org/1999/xlink" width="385.546875" height="200"><defs><style type="text/css"></style></defs><path d="M1462.366761 36.712367H511.998153C249.517361 36.712367 36.7106 249.496184 36.7106 511.99992S249.517361 987.287472 511.998153 987.287472a473.933849 473.933849 0 0 0 343.381777-146.658848h263.627998a473.933849 473.933849 0 0 0 343.358833 146.658848c262.503736 0 475.310497-212.783817 475.310497-475.287552S1724.870497 36.712367 1462.366761 36.712367z m43.180844 583.583823a146.842401 146.842401 0 1 1 146.842401-146.842401 146.842401 146.842401 0 0 1-146.842401 146.842401z" fill="#FF505E" p-id="4282"></path><path d="M1462.366761 1023.998073A510.506785 510.506785 0 0 1 1103.61242 877.339225H870.72955a511.998153 511.998153 0 0 1-720.766748-727.328768A508.648311 508.648311 0 0 1 511.998153 0.001767h950.368608a511.998153 511.998153 0 0 1 362.058295 874.033504 508.671255 508.671255 0 0 1-362.058295 149.962802z m-606.986831-220.080049h263.627998a36.7106 36.7106 0 0 1 26.523409 11.334398 434.83706 434.83706 0 0 0 316.835424 135.370338c241.854023 0 438.599897-196.745873 438.599897-438.576952S1704.220785 73.422967 1462.366761 73.422967H511.998153C270.167074 73.422967 73.421201 270.16884 73.421201 511.99992S270.167074 950.576872 511.998153 950.576872a434.882948 434.882948 0 0 0 316.858368-135.370338 36.7106 36.7106 0 0 1 26.523409-11.28851z" fill="#333333" p-id="4283"></path><path d="M624.309646 510.141446h-293.684802a36.7106 36.7106 0 0 1 0-73.421201h293.684802a36.7106 36.7106 0 0 1 0 73.421201z" fill="#333333" p-id="4284"></path><path d="M477.444301 656.800294a36.7106 36.7106 0 0 1-36.710601-36.710601V326.771997a36.7106 36.7106 0 0 1 73.421201 0v293.317696a36.7106 36.7106 0 0 1-36.7106 36.710601zM1505.547605 657.006791a183.553001 183.553001 0 1 1 183.553001-183.553002 183.782443 183.782443 0 0 1-183.553001 183.553002z m0-293.684802a110.131801 110.131801 0 1 0 110.131801 110.1318 110.269466 110.269466 0 0 0-110.131801-110.177689z" fill="#333333" p-id="4285"></path></svg>