<?xml version="1.0" standalone="no"?><!DOCTYPE svg PUBLIC "-//W3C//DTD SVG 1.1//EN" "http://www.w3.org/Graphics/SVG/1.1/DTD/svg11.dtd"><svg t="1576218042167" class="icon" viewBox="0 0 1024 1024" version="1.1" xmlns="http://www.w3.org/2000/svg" p-id="1189" xmlns:xlink="http://www.w3.org/1999/xlink" width="200" height="200"><defs><style type="text/css"></style></defs><path d="M606.523077 974.769231c11.815385 3.938462 25.6 3.938462 37.415385 0l234.338461-76.8c15.753846-5.907692 27.569231-19.692308 27.569231-37.415385v-708.923077c0-11.815385-7.876923-23.630769-19.692308-27.569231L647.876923 43.323077c-13.784615-3.938462-27.569231-3.938462-39.384615 0L137.846154 224.492308c-11.815385 3.938462-19.692308 15.753846-19.692308 27.56923v533.661539c0 11.815385 7.876923 23.630769 19.692308 27.569231l468.676923 161.476923z m23.630769-131.938462c0 11.815385-9.846154 21.661538-19.692308 19.692308l-393.846153-53.169231c-9.846154-1.969231-17.723077-9.846154-17.723077-19.692308v-7.876923c0-7.876923 3.938462-13.784615 13.784615-17.723077l74.830769-35.446153c7.876923-3.938462 11.815385-9.846154 11.815385-17.723077V291.446154c0-9.846154 5.907692-17.723077 15.753846-19.692308l295.384615-66.953846c11.815385-1.969231 23.630769 5.907692 23.63077 19.692308v618.338461z" p-id="1190" fill="#d81e06"></path></svg>